<mxfile host="Electron" modified="2023-05-25T02:48:40.073Z" agent="Mozilla/5.0 (Windows NT 10.0; Win64; x64) AppleWebKit/537.36 (KHTML, like Gecko) draw.io/21.2.8 Chrome/112.0.5615.165 Electron/24.2.0 Safari/537.36" etag="2CCOLG1r-zen-j1HVHac" version="21.2.8" type="device">
  <diagram name="Page-1" id="PjJY22FxxXUEr2gO3TAQ">
    <mxGraphModel dx="757" dy="578" grid="1" gridSize="10" guides="1" tooltips="1" connect="1" arrows="1" fold="1" page="1" pageScale="1" pageWidth="850" pageHeight="1100" math="0" shadow="0">
      <root>
        <mxCell id="0" />
        <mxCell id="1" parent="0" />
        <mxCell id="9gnQQJSBUnl9ygnwxno7-1" value="Publisher" style="sketch=0;outlineConnect=0;fontColor=#232F3E;gradientColor=none;fillColor=#232F3D;strokeColor=none;dashed=0;verticalLabelPosition=top;verticalAlign=bottom;align=center;html=1;fontSize=12;fontStyle=0;aspect=fixed;pointerEvents=1;shape=mxgraph.aws4.client;labelPosition=center;spacingBottom=10;" vertex="1" parent="1">
          <mxGeometry x="280" y="175.5" width="78" height="76" as="geometry" />
        </mxCell>
        <mxCell id="9gnQQJSBUnl9ygnwxno7-4" value="" style="endArrow=none;html=1;rounded=0;strokeWidth=3;" edge="1" parent="1">
          <mxGeometry width="50" height="50" relative="1" as="geometry">
            <mxPoint x="319.5" y="255" as="sourcePoint" />
            <mxPoint x="319.5" y="545" as="targetPoint" />
          </mxGeometry>
        </mxCell>
        <mxCell id="9gnQQJSBUnl9ygnwxno7-5" value="" style="endArrow=none;html=1;rounded=0;strokeWidth=3;" edge="1" parent="1">
          <mxGeometry width="50" height="50" relative="1" as="geometry">
            <mxPoint x="548.5" y="255" as="sourcePoint" />
            <mxPoint x="548.5" y="545" as="targetPoint" />
          </mxGeometry>
        </mxCell>
        <mxCell id="9gnQQJSBUnl9ygnwxno7-7" value="" style="endArrow=classic;html=1;rounded=0;" edge="1" parent="1">
          <mxGeometry width="50" height="50" relative="1" as="geometry">
            <mxPoint x="325" y="300" as="sourcePoint" />
            <mxPoint x="545" y="300" as="targetPoint" />
          </mxGeometry>
        </mxCell>
        <mxCell id="9gnQQJSBUnl9ygnwxno7-8" value="Message(DeduplicationID=DedId1)" style="text;html=1;align=center;verticalAlign=middle;resizable=0;points=[];autosize=1;strokeColor=none;fillColor=none;" vertex="1" parent="1">
          <mxGeometry x="324" y="270" width="210" height="30" as="geometry" />
        </mxCell>
        <mxCell id="9gnQQJSBUnl9ygnwxno7-9" value="" style="endArrow=classic;html=1;rounded=0;" edge="1" parent="1">
          <mxGeometry width="50" height="50" relative="1" as="geometry">
            <mxPoint x="324" y="480" as="sourcePoint" />
            <mxPoint x="544" y="480" as="targetPoint" />
          </mxGeometry>
        </mxCell>
        <mxCell id="9gnQQJSBUnl9ygnwxno7-10" value="Message(DeduplicationID=DedId1)" style="text;html=1;align=center;verticalAlign=middle;resizable=0;points=[];autosize=1;strokeColor=none;fillColor=none;" vertex="1" parent="1">
          <mxGeometry x="328" y="450" width="210" height="30" as="geometry" />
        </mxCell>
        <mxCell id="9gnQQJSBUnl9ygnwxno7-12" value="Network Disconnected" style="text;html=1;align=center;verticalAlign=middle;resizable=0;points=[];autosize=1;strokeColor=none;fillColor=none;fontStyle=1;fontSize=19;" vertex="1" parent="1">
          <mxGeometry x="318" y="355" width="230" height="40" as="geometry" />
        </mxCell>
        <mxCell id="9gnQQJSBUnl9ygnwxno7-16" value="SQS Queue FIFO" style="sketch=0;points=[[0,0,0],[0.25,0,0],[0.5,0,0],[0.75,0,0],[1,0,0],[0,1,0],[0.25,1,0],[0.5,1,0],[0.75,1,0],[1,1,0],[0,0.25,0],[0,0.5,0],[0,0.75,0],[1,0.25,0],[1,0.5,0],[1,0.75,0]];outlineConnect=0;fontColor=#232F3E;gradientColor=#FF4F8B;gradientDirection=north;fillColor=#BC1356;strokeColor=#ffffff;dashed=0;verticalLabelPosition=top;verticalAlign=bottom;align=center;html=1;fontSize=12;fontStyle=0;aspect=fixed;shape=mxgraph.aws4.resourceIcon;resIcon=mxgraph.aws4.sqs;labelPosition=center;spacingBottom=10;" vertex="1" parent="1">
          <mxGeometry x="510" y="172" width="78" height="78" as="geometry" />
        </mxCell>
        <mxCell id="9gnQQJSBUnl9ygnwxno7-17" value="&lt;b style=&quot;font-size: 16px;&quot;&gt;API: SendMessage&lt;/b&gt;" style="text;html=1;align=center;verticalAlign=middle;resizable=0;points=[];autosize=1;strokeColor=none;fillColor=none;fontSize=16;" vertex="1" parent="1">
          <mxGeometry x="140" y="270" width="170" height="30" as="geometry" />
        </mxCell>
        <mxCell id="9gnQQJSBUnl9ygnwxno7-20" value="" style="endArrow=classic;html=1;rounded=0;" edge="1" parent="1">
          <mxGeometry width="50" height="50" relative="1" as="geometry">
            <mxPoint x="543" y="430" as="sourcePoint" />
            <mxPoint x="323" y="430" as="targetPoint" />
          </mxGeometry>
        </mxCell>
        <mxCell id="9gnQQJSBUnl9ygnwxno7-21" value="Acknowledgement failed" style="text;html=1;align=center;verticalAlign=middle;resizable=0;points=[];autosize=1;strokeColor=none;fillColor=none;" vertex="1" parent="1">
          <mxGeometry x="357" y="400" width="150" height="30" as="geometry" />
        </mxCell>
        <mxCell id="9gnQQJSBUnl9ygnwxno7-22" value="Message is dropped. SQS already acknowledged this ID." style="text;html=1;align=center;verticalAlign=middle;resizable=0;points=[];autosize=1;strokeColor=none;fillColor=none;fontStyle=1;fontColor=#cc0000;" vertex="1" parent="1">
          <mxGeometry x="374" y="550" width="350" height="30" as="geometry" />
        </mxCell>
      </root>
    </mxGraphModel>
  </diagram>
</mxfile>
